#define Manjaro_logo_16x16_width 16
#define Manjaro_logo_16x16_height 16
static unsigned char Manjaro_logo_16x16_bits[] = {
   0xff, 0xf3, 0xff, 0xf3, 0xff, 0xf3, 0xff, 0xf3, 0x0f, 0xf0, 0x0f, 0xf0,
   0xcf, 0xf3, 0xcf, 0xf3, 0xcf, 0xf3, 0xcf, 0xf3, 0xcf, 0xf3, 0xcf, 0xf3,
   0xcf, 0xf3, 0xcf, 0xf3, 0xcf, 0xf3, 0xcf, 0xf3 };
